<?xml version="1.0" encoding="UTF-8" standalone="no"?>
<svg
   version="1.0"
   width="297mm"
   height="210mm"
   viewBox="0 0 841.88976 595.27559"
   preserveAspectRatio="xMidYMid"
   id="svg688"
   sodipodi:docname="IMAGEM EDIT.svg"
   inkscape:version="1.2.2 (732a01da63, 2022-12-09)"
   xmlns:inkscape="http://www.inkscape.org/namespaces/inkscape"
   xmlns:sodipodi="http://sodipodi.sourceforge.net/DTD/sodipodi-0.dtd"
   xmlns="http://www.w3.org/2000/svg"
   xmlns:svg="http://www.w3.org/2000/svg">
  <defs
     id="defs692">
    <inkscape:perspective
       sodipodi:type="inkscape:persp3d"
       inkscape:vp_x="0 : 297.63779 : 1"
       inkscape:vp_y="0 : 1000 : 0"
       inkscape:vp_z="841.88976 : 297.63779 : 1"
       inkscape:persp3d-origin="420.94488 : 198.4252 : 1"
       id="perspective1983" />
  </defs>
  <sodipodi:namedview
     id="namedview690"
     pagecolor="#ffffff"
     bordercolor="#000000"
     borderopacity="0.25"
     inkscape:showpageshadow="2"
     inkscape:pageopacity="0.0"
     inkscape:pagecheckerboard="0"
     inkscape:deskcolor="#d1d1d1"
     inkscape:document-units="mm"
     showgrid="false"
     inkscape:zoom="0.70342983"
     inkscape:cx="265.1295"
     inkscape:cy="355.40148"
     inkscape:window-width="1920"
     inkscape:window-height="1009"
     inkscape:window-x="1016"
     inkscape:window-y="-8"
     inkscape:window-maximized="1"
     inkscape:current-layer="svg688" />
  <rect
     style="fill:#000000;stroke-width:0.753057"
     id="rect1182"
     width="842.30157"
     height="597.07452"
     x="3.9445261e-10"
     y="-1.9719303e-10" />
  <path
     id="path1219"
     style="fill:#ececec;stroke-width:0.75"
     d="m 526.70508,12.793945 -24.52295,23.456543 26.65576,25.589356 -33.05273,18.125976 c 0,0 -26.65577,19.191541 -26.65577,14.926758 0,-4.264791 -5.33056,-23.456543 -5.33056,-23.456543 L 462.73242,55.442871 447.80566,36.250488 424.34912,24.522949 395.56201,25.589355 162.06299,170.59277 139.04297,193.61279 c 1.08486,0.22214 1.39215,1.58618 0.20215,2.85645 0.50498,0.42551 0.76752,1.29363 0.40283,2.49316 -0.61859,2.03468 -1.29709,4.05583 -2.31299,5.93408 -1.01108,1.73569 -2.17902,3.34629 -3.47461,4.86622 -0.0325,0.22117 -0.0319,0.42275 -0.11719,0.67236 -0.75732,2.21647 -1.57818,4.41 -2.5957,6.52295 -0.22778,0.48239 -0.4547,0.96549 -0.68408,1.44726 -0.17782,0.85966 -0.38267,1.71476 -0.65332,2.55909 -0.88284,2.71675 -2.42096,5.12 -3.74414,7.6289 -0.5592,1.57017 -1.05173,3.15976 -1.38428,4.7959 0.48443,2.32813 0.83276,4.68234 1.08984,7.0459 0.31928,1.98623 0.049,4.18895 0.85401,6.08203 0.645,1.58456 0.58002,3.3657 0.64013,5.04639 0.0899,3.54603 -0.26803,7.08742 -0.48779,10.62451 -0.01,0.29643 -0.034,0.59396 -0.0483,0.89062 0.12544,0.24636 0.24998,0.4932 0.375,0.73975 1.21969,2.54121 2.40532,5.10193 3.16992,7.81934 0.62702,2.88458 0.87024,5.82908 1.04883,8.77148 0.24508,0.31087 0.49544,0.61982 0.73096,0.93603 1.3826,2.20437 2.83792,4.35822 4.25098,6.54346 1.28867,2.20425 2.8391,4.22821 4.11181,6.44092 1.52588,2.4017 2.99982,4.83283 4.44873,7.28174 0.19169,0.36431 0.38252,0.72846 0.57422,1.09277 0.29599,0.56253 0.38246,1.04711 0.37647,1.47949 0.17306,0.23044 0.34352,0.46257 0.52295,0.68848 1.313,1.65329 0.62523,3.08284 -0.55665,3.11865 l 10.94971,16.13526 42.64746,11.729 66.10547,-4.26562 71.43457,-4.26416 90.62842,-41.58252 25.58789,-38.38331 h 33.05273 l 136.4751,-90.62695 8.52832,-43.71533 L 601.33887,83.163574 597.07471,58.640625 576.81592,44.780273 Z M 135.82471,200.21777 c -0.40413,0.68843 -0.78864,1.38741 -1.15576,2.09619 0.11893,-0.0448 0.25274,-0.13611 0.36474,-0.16259 0.28492,-0.63618 0.5375,-1.28509 0.79102,-1.9336 z m -12.48633,26.11524 -0.22412,0.89502 c 0.0945,-0.25798 0.20531,-0.51105 0.30469,-0.76758 -0.0285,-0.0403 -0.0549,-0.0831 -0.0806,-0.12744 z m -0.8291,13.89258 c -0.0547,0.6077 -0.0979,1.21604 -0.13623,1.82519 l 0.80713,8.33789 c 0.046,0.14322 0.0793,0.2878 0.1289,0.43067 0.28644,0.74864 0.51242,1.51326 0.71485,2.28369 0.005,-0.47526 0.0563,-0.94981 0.0454,-1.4253 -0.047,-1.32896 0.0516,-2.77385 -0.43506,-4.03271 -0.78726,-2.20154 -0.83097,-4.55879 -1.04297,-6.86426 -0.0202,-0.18598 -0.0581,-0.36969 -0.082,-0.55517 z" />
  <path
     id="path1221"
     style="fill:#ececec;stroke-width:0.75"
     d="m 610.93506,92.759766 -482.99121,152.466794 53.31152,20.25879 66.104,6.39697 62.90625,-10.66259 68.23682,-23.45655 63.97266,-29.85351 68.23681,-39.44971 97.02393,-71.436034 z" />
  <path
     id="path1416"
     style="fill:#1a1a1a;stroke-width:1.42161"
     transform="scale(0.75)"
     d="m 702.53906,18.550781 c -0.53682,0.03854 -8.01264,6.753998 -16.61328,14.923828 l -15.63867,14.855469 17.76953,16.898438 c 9.77346,9.293837 17.4515,17.223949 17.06055,17.623046 -0.39094,0.399104 -10.20653,5.930491 -21.8125,12.292969 -11.60596,6.362449 -25.68008,14.641269 -31.27539,18.396489 -13.06459,8.76799 -22.78537,14.40429 -24.84375,14.40429 -0.89376,0 -1.93482,-1.43998 -2.31446,-3.19922 -0.37964,-1.75916 -2.31207,-10.00225 -4.29297,-18.31836 -1.98082,-8.31601 -3.61024,-18.872099 -3.62304,-23.457027 -0.0217,-8.154609 -0.2405,-8.615257 -10.03321,-21.130859 C 597.26203,49.493955 596.3806,48.779407 581.80859,41.441406 l -15.09961,-7.605469 -19.17578,0.205079 -19.17578,0.205078 -155.78125,96.697266 -155.78125,96.69726 -22.08008,21.97266 -8.7832,8.74024 c 1.01084,0.5928 1.11991,2.15173 -0.25781,3.61523 0.66487,0.57124 1.00659,1.72528 0.52344,3.31445 -0.82479,2.71291 -1.72946,5.40774 -3.08399,7.91211 -1.34811,2.31426 -2.90536,4.46173 -4.63281,6.48828 -0.0434,0.2949 -0.0425,0.56368 -0.15625,0.89649 -1.00976,2.95529 -2.10425,5.88005 -3.46094,8.69726 -0.32559,0.68954 -0.61545,1.39534 -0.94336,2.08399 -0.23126,1.094 -0.49514,2.18251 -0.83984,3.25781 -1.17713,3.62234 -3.22795,6.82667 -4.99219,10.17188 -0.7456,2.09355 -1.40231,4.213 -1.8457,6.39453 0.6459,3.10412 1.11034,6.24312 1.45312,9.39453 0.42571,2.6483 0.0654,5.58534 1.13867,8.10937 0.86,2.11275 0.77327,4.4876 0.85352,6.72852 0.11983,4.72807 -0.35738,9.44997 -0.65039,14.16601 -0.013,0.40044 -0.0373,0.8024 -0.0566,1.20313 0.16461,0.32329 0.32812,0.64716 0.49219,0.9707 1.62619,3.38828 3.20709,6.80263 4.22656,10.42578 0.83602,3.84619 1.16031,7.77212 1.39844,11.69532 0.32671,0.41496 0.66037,0.82607 0.97461,1.24804 1.84339,2.93916 3.78396,5.81103 5.66796,8.72461 1.71834,2.939 3.78548,5.63769 5.48243,8.58789 2.03443,3.20227 3.99976,6.44378 5.93164,9.70899 0.25558,0.48574 0.51002,0.97128 0.76562,1.45703 0.39191,0.74482 0.49379,1.38302 0.48828,1.95703 0.23476,0.31287 0.46741,0.62696 0.71094,0.93359 1.47771,1.86061 1.05764,3.51593 -0.0566,4.01563 0.22086,0.33967 0.41933,0.66138 0.65625,1.01367 l 13.57422,20.1875 28.30469,7.73438 28.30468,7.73437 49.36914,-3.14844 c 27.15342,-1.73136 68.24321,-4.2441 91.3086,-5.58398 l 41.9375,-2.43555 60.75976,-27.80859 60.76172,-27.8086 16.7168,-25.25976 16.7168,-25.25977 22.02343,-0.0332 22.02344,-0.0313 91.09961,-60.7168 91.09766,-60.71875 5.28125,-27.0664 c 2.90433,-14.88641 5.25686,-28.0186 5.22656,-29.18164 -0.0303,-1.16304 -8.93458,-11.07715 -19.78711,-22.03321 L 800.70508,110.17383 798.2168,94.220703 795.72852,78.265625 769.96875,61.351562 C 733.26198,37.248704 703.67618,18.469141 702.53906,18.550781 Z M 181.09961,266.95703 c -0.53883,0.9179 -1.05152,1.84987 -1.54102,2.79492 0.15859,-0.0598 0.337,-0.18148 0.48633,-0.21679 0.37989,-0.84824 0.71667,-1.71345 1.05469,-2.57813 z m -16.73828,61.57031 0.55859,5.55078 c 0.12149,1.20902 0.21876,2.02071 0.32031,2.90821 0.0635,0.22767 0.12105,0.45665 0.17969,0.68554 0.009,-0.70048 0.0209,-1.40098 0.006,-2.10156 -0.0627,-1.77205 0.0688,-3.69847 -0.58008,-5.37695 -0.19603,-0.54821 -0.34957,-1.10513 -0.48437,-1.66602 z" />
  <path
     id="path1537"
     style="fill:#ffffff;stroke-width:0.75"
     d="m 607.7369,88.495605 -199.37988,120.480465 -19.19238,22.39014 -19.19239,-2.13281 -70.36816,21.32519 -34.11914,8.52979 -39.44971,-2.13281 -17.05957,-17.05957 -26.6543,-17.05957 -15.99316,-4.26416 -43.71432,10.66133 8.16696,37.94951 c -5.77024,-0.67989 17.18932,-104.75928 26.14867,-65.9149 -11.43394,-53.02253 -36.81417,31.50925 -28.12541,77.6638 l 12.74627,13.76428 c 5.9e-4,9.1e-4 0.001,0.002 0.001,0.003 0.34446,0.53535 0.67938,1.07719 0.99756,1.63037 1.52588,2.4017 2.99982,4.83283 4.44873,7.28174 0.19169,0.36431 0.38252,0.72846 0.57422,1.09277 0.29663,0.56373 0.38852,1.0533 0.38086,1.48535 0.17164,0.22846 0.34065,0.45862 0.51856,0.68262 0.83647,1.05329 0.85714,2.01414 0.45996,2.58545 l 8.8667,17.73486 42.64746,9.59619 145.00407,-4.26517 85.2972,-46.91354 24.52234,-30.91987 49.04535,-4.26501 119.41522,-91.69256 9.59472,-43.71533 z"
     sodipodi:nodetypes="ccccccccccccccccccscccccccccccc" />
  <path
     style="fill:#ffffff;stroke-width:0.75"
     id="path2272"
     d="m 211.46703,162.21804 c 5.31191,5.27081 11.31856,9.82888 17.17684,14.47936 3.73882,3.11572 7.93459,5.56039 12.1501,7.94968 3.85153,2.14452 8.17313,2.60933 12.44391,3.25038 4.95511,0.85208 9.9931,0.95142 15.00674,1.07762 6.09093,0.16478 11.87697,-1.42447 17.31024,-4.05701 4.49701,-2.30698 8.29494,-5.68768 12.37672,-8.62082 4.21058,-2.82555 8.74479,-5.09563 13.13815,-7.60919 5.52176,-3.49195 11.38058,-6.39116 17.1805,-9.3812 7.28101,-3.87209 14.30919,-8.18203 21.37576,-12.42522 6.70019,-4.30551 13.73157,-8.06343 20.66066,-11.98138 9.55052,-5.018 19.29143,-9.64076 28.82194,-14.69952 7.98393,-4.39494 15.97975,-8.77868 23.61897,-13.75613 5.88132,-3.68578 11.69277,-7.511352 17.16051,-11.790522 3.68276,-2.617335 7.29659,-5.34414 10.76372,-8.241495 1.98095,-1.839045 4.1438,-3.47118 6.45666,-4.868003 4.27925,-2.607315 0.59194,-8.659082 -3.6873,-6.051765 v 0 c -2.60477,1.598093 -5.08099,3.413678 -7.32579,5.492153 -3.39444,2.865795 -6.98279,5.504925 -10.58751,8.098312 -5.28255,4.176083 -10.96409,7.829625 -16.65182,11.42572 -7.4563,4.86886 -15.27811,9.13048 -23.07015,13.43236 -9.58565,5.0888 -19.38898,9.7277 -28.98733,14.79015 -6.98274,3.94845 -14.06759,7.73725 -20.82066,12.07463 -6.93545,4.16449 -13.83171,8.39665 -20.97492,12.20188 -5.89281,3.03794 -11.84418,5.98658 -17.45621,9.53114 -4.60157,2.64052 -9.36056,5.01215 -13.75438,8.00595 -3.76044,2.70944 -7.26828,5.81732 -11.36846,8.0155 -4.36966,2.19849 -9.07793,3.43977 -14.00154,3.33009 -4.72179,-0.11809 -9.46865,-0.1956 -14.13514,-1.00174 -3.40952,-0.5093 -6.89174,-0.76561 -10.00143,-2.40851 -3.89718,-2.20484 -7.78456,-4.44705 -11.23591,-7.33347 -5.52521,-4.38597 -11.17805,-8.6922 -16.24965,-13.59552 -3.29976,-3.77115 -8.63298,0.89541 -5.33322,4.66657 z" />
  <path
     style="fill:#ffffff;stroke-width:0.75"
     id="path2276"
     d="m 256.13762,118.86351 c 7.12649,5.14396 14.15512,10.37521 20.88661,16.03156 6.0368,5.43319 11.72778,11.26599 17.04891,17.40116 4.07819,4.85643 6.65291,10.75222 9.32644,16.45064 2.73368,6.09999 6.42208,11.66918 10.35569,17.04813 2.96209,4.0418 8.67805,-0.14722 5.71596,-4.18902 v 0 c -3.67505,-5.00272 -7.11246,-10.18768 -9.65677,-15.87067 -2.95456,-6.28967 -5.84463,-12.75582 -10.39064,-18.08562 -5.57181,-6.4087 -11.5126,-12.51675 -17.8417,-18.18102 -6.93368,-5.82167 -14.17027,-11.21143 -21.51355,-16.50159 -4.16939,-2.77959 -8.10035,3.11682 -3.93095,5.89643 z" />
  <path
     style="fill:#ffffff;stroke-width:0.75"
     id="path2278"
     d="m 303.19419,88.567072 c 7.30767,7.029945 14.03107,14.617238 20.7663,22.186458 3.46747,4.18477 7.06704,8.29951 10.21503,12.73885 2.59917,3.6654 4.78918,7.59657 6.94358,11.53047 2.76334,5.2667 5.84162,10.36187 8.45877,15.70529 2.14451,3.78535 4.74704,7.27176 7.11281,10.91478 1.17556,2.13505 2.45444,4.20937 3.66089,6.32636 2.48386,4.35207 8.63861,0.83936 6.15476,-3.51271 v 0 c -1.27622,-2.23313 -2.61429,-4.42964 -3.87246,-6.67352 -2.21274,-3.40675 -4.62416,-6.67801 -6.69449,-10.17762 -2.67347,-5.43547 -5.78062,-10.636 -8.60714,-15.99094 -5.11529,-9.31013 -10.92759,-17.67569 -18.07761,-25.57181 -6.82668,-7.671952 -13.6448,-15.35913 -21.04945,-22.486605 -3.5433,-3.543307 -8.5543,1.46769 -5.01099,5.010997 z" />
  <path
     style="fill:#ffffff;stroke-width:0.75"
     id="path2280"
     d="m 338.61606,70.530605 c 6.01849,5.365097 11.7695,11.022902 17.43105,16.760343 7.5419,7.91463 14.62117,16.239462 20.85168,25.226162 4.82413,7.32357 8.79752,15.17068 12.30926,23.19431 2.87518,6.23485 5.69156,12.49731 8.88655,18.5768 2.33426,4.43411 8.60503,1.13297 6.27077,-3.30113 v 0 c -3.12537,-5.92594 -5.8528,-12.04489 -8.66743,-18.12196 -3.70748,-8.43736 -7.88064,-16.69651 -12.97833,-24.39007 -6.47528,-9.310893 -13.79367,-17.964138 -21.62886,-26.162253 -5.82404,-5.899245 -11.73687,-11.721066 -17.93795,-17.22629 -3.84954,-3.207959 -8.38629,2.236129 -4.53674,5.444088 z" />
  <path
     style="fill:#ffffff;stroke-width:0.75"
     id="path2282"
     d="m 375.16395,50.581587 c 8.68397,7.275131 17.03452,14.907695 25.34765,22.598025 7.7576,7.483593 15.716,14.751078 23.67665,22.016418 4.1205,4.103347 8.91885,7.5488 12.59291,12.08227 1.31602,1.76641 2.59487,3.56242 3.84523,5.37656 2.84807,4.12294 8.67878,0.0952 5.83071,-4.02776 v 0 c -1.3651,-1.9723 -2.74881,-3.93428 -4.19835,-5.84504 -3.94353,-4.75796 -8.85279,-8.546825 -13.29333,-12.820408 -7.94892,-7.254622 -15.89521,-14.511757 -23.64154,-21.984161 -8.34769,-7.721944 -16.7317,-15.387701 -25.45184,-22.692505 -3.74526,-3.329123 -8.45336,1.967479 -4.70809,5.296601 z" />
  <path
     style="fill:#ffffff;stroke-width:0.75"
     id="path2284"
     d="m 558.36395,36.898154 c -5.41836,5.351141 -9.91029,11.476596 -14.33138,17.645751 -4.50768,6.37605 -7.98002,13.388853 -11.07221,20.53534 -2.65047,6.582472 -4.46089,13.45317 -6.47063,20.246378 -2.58556,7.744907 -3.80429,15.773667 -4.88353,23.832327 -0.44602,3.34361 -0.79416,6.69843 -1.12417,10.05497 -0.48983,4.98699 6.56285,5.67971 7.05268,0.69271 v 0 c 0.32121,-3.27381 0.66073,-6.54589 1.09541,-9.80707 1.03072,-7.6973 2.16877,-15.36806 4.65516,-22.762803 1.9287,-6.521189 3.66343,-13.116944 6.18037,-19.445579 2.88462,-6.685543 6.12081,-13.250313 10.3272,-19.2184 4.19565,-5.855142 8.43716,-11.684726 13.58209,-16.762631 3.54331,-3.543306 -1.46768,-8.554299 -5.01099,-5.010993 z" />
  <text
     xml:space="preserve"
     style="font-style:normal;font-variant:normal;font-weight:bold;font-stretch:normal;font-size:112.741px;font-family:'Ink Free';-inkscape-font-specification:'Ink Free Bold';fill:#000000;stroke-width:1.17438"
     x="143.88684"
     y="539.37378"
     id="text2779"
     transform="scale(1.1044252,0.90544839)"><tspan
       sodipodi:role="line"
       id="tspan2777"
       style="fill:#ffffff;stroke-width:1.17438"
       x="143.88684"
       y="539.37378">OLSHOES</tspan></text>
  <path
     style="fill:#000000;stroke-width:0.75"
     id="path2968"
     d="m 150.85002,186.98624 c -0.0681,3.37114 -0.22676,6.65713 -1.02564,9.94304 -0.51296,2.10987 -0.12547,1.4583 -1.05716,2.58245 -1.97943,0.0168 -3.84049,0.73006 -5.7951,0.98232 -4.66815,0.1308 -7.16451,5.80355 -8.5801,9.5103 -1.36109,3.66159 -1.63406,7.56634 -2.26835,11.37805 -0.30715,0.0157 -0.51231,0.5049 -0.69828,0.59675 -0.0734,0.0363 0.0749,-0.27298 -0.002,-0.24564 -0.52676,0.18655 -0.86346,0.70987 -1.28383,1.07804 0.55764,-0.22942 -2.09814,2.67973 -2.08665,1.78631 0.002,-0.19605 0.11148,-0.49449 0.30742,-0.50145 0.95031,-0.0338 1.88397,0.26001 2.82595,0.39001 0.36412,-0.18406 0.61454,0.99221 1.01624,0.82298 0.33166,-0.13972 1.64684,-2.61265 1.67373,-2.65902 1.56472,-2.69698 0.97072,-1.72218 2.78382,-4.36554 2.02429,-2.13991 3.74236,-4.6438 6.03061,-6.53054 0.53781,-0.44344 1.1687,-0.76097 1.73459,-1.16797 1.60424,-0.98512 1.91054,-3.07491 3.37091,-4.09016 1.61953,-2.01264 2.96422,-4.25463 4.26409,-6.49014 1.51723,-3.26803 2.27538,-6.83219 3.36805,-10.2572 0.84368,-1.72256 1.80723,-4.96955 3.42737,-6.16043 0.15147,-0.11135 -0.20233,0.3169 -0.3035,0.47535 -6.14234,-1.43892 -5.5859,-3.32966 -5.90577,-0.28758 -0.0103,0.53131 7.5037,0.67651 7.51397,0.1452 v 0 c -0.0926,-4.32106 0.52635,-1.64398 -6.10768,-5.53575 -3.04523,2.38947 -4.82017,5.79223 -6.02623,9.43585 -0.92509,3.00738 -1.45501,6.1654 -2.73889,9.03679 -0.99749,1.78897 -2.03511,3.5949 -3.32545,5.18154 -0.93044,1.09732 -1.44071,2.38272 -2.61609,3.13974 -3.82739,2.47162 -6.98175,5.75524 -9.67318,9.42613 -2.10828,3.39238 -5.95848,8.84187 -4.7998,13.05118 0.23053,0.83751 0.91538,1.47661 1.37307,2.21491 1.37951,0.41948 2.70606,1.09402 4.13853,1.25845 1.96152,0.22515 4.19249,-2.09854 5.24812,-3.51506 1.69259,-1.45037 3.24412,-2.81667 3.85052,-5.09271 0.67788,-3.41596 1.15942,-6.88292 2.29102,-10.19541 0.52826,-1.40283 0.70876,-2.0788 1.47245,-3.35847 0.26446,-0.44316 0.63908,-0.8152 0.89475,-1.26349 0.0258,-0.0452 -0.15697,-0.0812 -0.1125,-0.10811 0.50411,-0.30563 1.47234,0.71603 1.75543,-0.21514 3.62514,-0.68589 7.2583,-1.46337 9.73601,-4.45089 0.42583,-0.75341 0.93198,-1.46679 1.27752,-2.26025 1.85888,-4.26847 1.88316,-9.14421 1.55152,-13.68444 0,-0.53028 -7.49924,-0.53028 -7.49924,0 z" />
  <path
     style="fill:#000000;stroke-width:0.75"
     id="path2970"
     d="m 147.81332,202.0434 c 4.24163,-2.66729 8.16693,-6.30759 10.46738,-10.83367 0.39174,-0.77073 0.63606,-1.60789 0.9541,-2.41184 0.18122,-0.51031 -7.0356,-3.07318 -7.21682,-2.56288 v 0 c -2.18188,4.42374 -6.03728,7.66819 -9.7561,10.78113 -0.35548,0.39254 5.19596,5.41981 5.55144,5.02726 z" />
  <path
     style="fill:#000000;stroke-width:0.75"
     id="path2972"
     d="m 145.95857,186.6875 c 0.67973,4.35005 1.87462,8.00511 0.008,12.1929 -2.26662,1.82888 -4.90104,2.27037 -7.49023,3.40535 -3.53111,2.16091 -5.28905,5.88802 -7.44206,9.24307 -2.49171,2.55251 -1.24223,2.71629 5.70464,5.28659 0.29717,0.10995 6.60895,-3.87395 7.18246,-4.22824 3.57057,-2.74708 7.77004,-5.4017 9.81172,-9.6104 0.31815,-0.65583 0.49183,-1.37238 0.73775,-2.05857 0.83856,-3.15785 -0.84307,-5.60929 -1.89118,-8.38817 0.26071,0.29257 -0.002,0.75105 0.17696,1.06254 0.0612,0.10672 0.21181,-0.13293 0.33108,-0.16305 1.23167,-0.31101 1.86348,-1.48689 2.61603,-2.46313 2.71025,-4.40826 3.59619,-5.5137 -5.12615,-6.21696 -0.59613,-0.0481 -0.59938,1.0353 -0.88411,1.56124 -0.37113,0.68553 -0.72213,1.38177 -1.08318,2.07266 -2.04256,3.18277 -2.00586,7.2021 -3.77357,10.46128 -0.72942,1.49436 0.16366,-0.40673 -0.65833,1.68168 -0.0246,0.0626 -0.0157,-0.14146 0.0154,-0.20103 0.20124,-0.3852 0.56905,-0.69468 0.67301,-1.11666 0.0403,-0.16329 -0.30926,0.13487 -0.45272,0.2226 -0.29934,0.18307 -0.582,0.39211 -0.87299,0.58817 -1.06175,1.18768 -2.67814,1.48019 -3.87812,2.45608 -0.86353,0.70228 -1.48964,1.41833 -2.22537,2.21385 -0.0343,0.007 -0.0686,0.0145 -0.10281,0.0217 2.05567,0.4762 4.06923,1.20075 6.16699,1.42861 0.40133,0.0436 3.24121,-7.48291 3.47831,-8.08477 0.9243,-1.99031 2.22,-3.90961 3.99492,-5.2556 0.37185,-0.28199 0.82462,-0.44018 1.21367,-0.69792 0.28972,0.38076 0.17942,0.36942 0.93478,-0.0864 2.29587,-1.3855 3.1297,-3.89939 3.9352,-6.2986 0.13529,-0.51782 -7.18762,-2.43116 -7.32291,-1.91336 v 0 c -0.21115,0.74697 -0.62686,1.45189 -0.6839,2.22603 -0.006,0.0787 0.46817,-0.34447 0.43942,-0.3442 -0.22407,0.002 -0.43915,0.0998 -0.646,0.18603 -0.49232,0.20515 -0.96381,0.45706 -1.44572,0.68558 -3.59174,2.051 -6.26857,5.28023 -7.93593,9.04938 -1.03949,2.64337 -2.20758,5.31462 -2.85135,8.09241 -0.21045,0.90809 -1.11075,2.07502 -0.4742,2.75598 4.73444,5.06474 4.67348,4.68487 7.13945,2.76704 1.61292,-1.46605 3.54474,-2.40656 5.19742,-3.83616 1.36689,-0.87043 2.33851,-2.04521 3.00872,-3.41015 2.01497,-3.37366 2.70723,-7.26571 4.33981,-10.82057 0.28074,-0.68436 0.56807,-1.36604 0.84221,-2.05306 0.1511,-0.37871 0.76065,-0.90062 0.4334,-1.14385 -7.38502,-5.48901 -5.3811,-4.45828 -7.70268,-0.92093 -0.7097,0.8753 -1.64126,1.43146 -2.40127,2.27162 -1.33453,1.47529 -1.86388,3.3913 -1.47292,5.33651 0.4988,1.41531 1.25622,2.73531 1.77261,4.10155 -1.35222,3.51668 -5.97615,5.56673 -8.65818,7.89788 -2.14648,1.40283 -6.69627,4.33665 -6.67166,4.4121 0.72729,2.2293 2.57417,3.93935 4.12308,5.69993 0.49545,0.56316 1.30763,-3.48697 1.53488,-1.64552 0.75169,-1.0653 1.22377,-1.70595 1.9368,-2.85774 0.81623,-1.31846 1.52391,-2.87144 2.96924,-3.61259 4.23757,-1.46517 8.19817,-3.22286 10.61817,-7.24043 0.30571,-0.7393 0.68109,-1.45349 0.91711,-2.21789 1.4196,-4.59759 0.60619,-9.52647 -0.75254,-14.02931 -0.10854,-0.51997 -7.46199,1.01497 -7.35345,1.53494 z" />
  <circle
     id="path2974"
     style="fill:#ffffff;stroke:#000000;stroke-width:0.75"
     cx="109.81906"
     cy="361.4433"
     r="0.25160745" />
  <path
     style="fill:#ffffff;stroke-width:0.75"
     id="path2976"
     d="m 121.64546,247.88838 c 1.73519,6.815 4.07744,13.46004 5.46644,20.36099 0.79549,2.65143 -0.26505,4.88316 -0.57816,7.46224 0.64495,4.05788 2.50131,7.84733 4.30809,11.50621 2.06931,3.08545 1.76844,6.51673 2.07516,10.04647 0.75905,4.34522 0.73006,8.78463 1.90602,13.04376 1.02565,3.27147 3.0575,5.63204 5.74589,7.6622 2.56745,1.9072 5.41477,3.17624 8.39846,4.25191 1.65553,0.7518 3.08702,1.85282 4.50246,2.97324 0.36107,0.38388 5.78996,-4.72248 5.42889,-5.10636 v 0 c -1.68926,-1.3519 -3.34822,-2.72214 -5.32424,-3.64911 -1.32016,-0.8325 -1.19815,-0.87708 -2.63263,-1.33695 -0.36917,-0.11835 -0.7683,-0.13792 -1.12852,-0.28124 -1.4767,-0.58752 -2.68896,-1.69642 -4.1237,-2.3653 -1.81185,-0.9923 -2.93781,-1.79844 -3.49522,-3.87785 -1.12708,-3.87717 -0.66314,-8.07814 -1.59036,-12.01468 -0.56394,-4.19408 -0.31975,-8.51797 -2.64177,-12.27635 -1.19127,-2.33504 -2.2563,-4.72792 -3.39267,-7.08925 -0.16384,-0.34047 -0.25842,-0.71772 -0.46665,-1.03301 -0.0349,-0.053 -0.12288,0.0316 -0.18432,0.0473 -0.097,-0.91224 0.50171,-1.97626 0.70698,-2.85493 0.29874,-1.27877 0.46549,-2.35374 0.46644,-3.68335 6.1e-4,-0.8576 -0.0916,-1.71277 -0.13735,-2.56915 -1.0999,-7.28777 -3.18072,-14.43447 -6.00833,-21.23956 -0.14302,-0.51626 -7.44393,1.50646 -7.30091,2.02271 z" />
  <path
     style="fill:#ffffff;stroke-width:0.75"
     id="path2978"
     d="m 156.47231,313.25687 c -4.23957,-4.29642 -8.26188,-8.84688 -11.21265,-14.13636 -0.47227,-1.31708 -0.56175,-2.76617 -0.4165,-4.15671 0.0112,-0.10676 0.2148,-0.37177 0.16218,-0.2782 -1.69436,3.01338 -0.42518,2.18669 -3.83378,2.51844 3.72369,2.99606 7.11234,6.46642 10.04503,10.23945 2.34099,3.17284 4.52943,6.45334 6.92684,9.5851 2.0139,2.45562 3.63716,5.29706 5.78305,7.64362 0.64456,0.70484 1.38129,1.3195 2.07194,1.97925 5.64693,4.32217 12.71745,4.85506 19.54157,5.4829 3.74191,0.28515 7.52001,0.46283 11.27053,0.18619 0.34555,-0.0255 1.35544,-0.13256 1.01788,-0.21072 -0.56746,-0.13138 -1.16461,0.028 -1.74692,0.0419 3.3384,0.62927 6.65445,1.36038 10.00389,1.93046 4.20584,0.63992 8.46157,0.6972 12.70529,0.57707 2.57395,-0.0729 1.64062,-0.48213 2.53354,-0.0592 1.41421,0.027 2.76533,0.4143 4.09665,0.85375 0.14527,0.0479 0.46633,0.3146 0.42762,0.1666 -0.0828,-0.31664 -0.39296,-0.52351 -0.58945,-0.78526 0.043,-1.13855 0.0861,-2.27709 0.12917,-3.41564 -0.12994,-0.20539 -0.15884,-0.54055 -0.38982,-0.61616 -0.52449,-0.17169 -5.63547,-0.4161 -5.65551,-0.4172 -6.60899,-0.36141 -0.42853,-0.0683 -6.83915,-0.35615 -5.06133,-0.13294 -10.09602,-0.75295 -15.10971,-1.4236 -3.09435,-0.65601 -6.2738,-0.70374 -9.38212,-1.23287 -0.42888,0.0405 -3.05677,-0.68894 -3.32027,-0.49889 -0.11482,0.0828 0.19636,0.20403 0.29453,0.30604 -0.37272,-0.35181 -5.34808,4.91922 -4.97536,5.27103 v 0 c 1.88191,1.44892 2.82448,1.54447 5.11621,1.807 3.12683,0.56025 6.27361,0.85701 9.39576,1.4861 5.16071,0.91897 10.40705,1.59132 15.6313,1.96363 3.4266,0.21864 6.86965,0.44755 10.30525,0.44563 1.31967,-7.4e-4 5.74882,0.0801 7.57991,-0.47355 0.92401,-0.27938 1.75201,-0.8111 2.62802,-1.21666 0.44466,-1.45208 1.29585,-2.83809 1.334,-4.35625 0.075,-2.98351 -6.575,-4.50187 -8.56409,-4.94967 -4.83785,-0.065 -9.68987,0.16841 -14.51226,-0.3124 -3.4605,-0.42221 -6.89169,-1.0235 -10.33938,-1.53326 -4.26911,-0.16829 -5.11907,-0.4165 -10.44135,-0.79636 -5.49807,-0.51889 -11.37075,-0.41452 -16.38472,-2.99114 -0.43755,-0.30036 -0.931,-0.53228 -1.31264,-0.90108 -0.48246,-0.46622 -2.08976,-2.72088 -2.50592,-3.24336 -1.13336,-1.42296 -2.34787,-2.78181 -3.34969,-4.30899 -2.40077,-3.10947 -4.48321,-6.41933 -6.65296,-9.68934 -3.35278,-4.54228 -7.35008,-8.69013 -11.97394,-11.94879 -1.70075,-0.4107 -3.37631,-1.51902 -5.10226,-1.23208 -5.05625,0.84061 -3.71085,8.88494 -2.76329,11.89768 2.87856,6.14759 6.88702,11.7333 12.42824,15.76968 0.3261,0.4204 6.27144,-4.19127 5.94534,-4.61168 z" />
  <path
     style="fill:#ffffff;stroke-width:0.75"
     id="path2980"
     d="m 134.2774,227.52911 c 1.79895,-4.65856 3.15786,-9.32028 5.76613,-13.60247 1.53716,-2.21256 3.19167,-4.3577 4.96023,-6.39737 2.57364,-2.99236 4.91749,-6.12866 7.05539,-9.44361 1.68736,-2.329 3.25099,-4.69484 4.33281,-7.36737 1.03687,-3.02617 -0.65036,0.25654 0.75355,-1.42498 0.38691,-0.46342 0.90495,-0.99189 1.31168,-1.42014 0.3101,-0.41475 0.65003,-0.8088 0.93031,-1.24427 0.3158,-0.49068 0.52942,-1.04321 0.85404,-1.52811 0.16402,-0.24502 0.41583,-0.41942 0.60251,-0.64766 0.99748,-1.21957 2.00779,-2.43202 2.91868,-3.7169 1.32516,-3.07535 1.81177,-3.33216 -7.22591,-3.24914 -1.06633,0.01 -1.4446,1.56971 -2.13625,2.38135 -2.79486,3.27977 -5.50221,6.64795 -8.19906,10.00838 -3.13002,4.53031 -5.89233,9.47008 -7.51839,14.75572 -0.3836,0.73905 -0.39296,1.60103 -0.7011,2.36249 -0.29988,0.74102 -0.84585,1.357 -1.24832,2.0477 -1.20262,2.06387 -1.10656,1.91345 -2.3498,4.1208 -2.11894,3.37115 -4.10306,6.80035 -6.02195,10.28225 -1.27166,1.98653 -1.2914,4.77229 -2.92635,6.53976 -0.53707,-1.7592 2.94134,-1.00024 3.12312,-0.97837 0.1035,0.0125 0.1659,0.17481 0.26902,0.15948 0.27634,-0.0411 -0.0241,-0.55846 -0.0502,-0.83662 -0.13522,-2.42856 0.29464,-2.83568 2.29704,-4.00518 1.94241,-1.37969 4.78419,-2.90806 6.34499,-4.72365 0.39964,-0.46489 0.71097,-0.99894 1.06645,-1.49842 0.22131,-0.46875 0.48714,-0.91896 0.66394,-1.40625 0.3026,-0.83403 0.36937,-1.57706 0.64976,-2.38626 0.41795,-1.20623 1.10511,-2.28296 1.67042,-3.42562 2.28776,-3.31514 4.80392,-6.58698 7.72098,-9.38159 0.97636,-0.80284 1.5529,-1.93007 2.28259,-2.92881 0.49716,-0.68047 0.39174,-0.20972 1.0905,-0.97883 0.42986,-0.47315 0.78865,-1.00628 1.18297,-1.50942 2.11916,-2.67443 3.97613,-5.51191 5.72313,-8.44145 1.68559,-1.92486 2.77964,-4.26681 4.41702,-6.23038 0.69953,-0.83888 1.49028,-1.59737 2.22467,-2.4059 2.89544,-3.85678 2.02709,-4.36846 -5.23335,-6.56714 -0.52276,-0.15831 -6.24537,3.12698 -6.90776,3.52133 -3.0832,1.9233 -5.7577,4.30193 -8.06654,7.09587 -2.101,2.85973 -4.02801,5.84335 -5.5691,9.04319 -1.43018,3.3399 -1.50431,7.0336 -2.57662,10.46305 -2.00882,1.41719 -3.12789,3.54871 -4.23833,5.69541 -1.67796,2.86092 -2.84587,5.91745 -3.74619,9.09247 -0.47412,0.60717 -0.88776,1.2922 -1.37769,1.88592 -0.14455,0.17518 -0.29145,0.38029 -0.50513,0.45728 -0.0875,0.0315 -0.0813,-0.25925 0.01,-0.27876 1.18685,-0.25476 2.40499,-0.33178 3.60749,-0.49766 0.64578,0.81744 1.09698,1.83665 1.93734,2.45232 0.22494,0.16481 0.31927,-0.46124 0.43261,-0.71603 0.2749,-0.61799 0.47159,-1.26816 0.72835,-1.8939 0.8531,-2.07904 1.92637,-4.04818 2.89507,-6.07425 0.63877,-1.1641 0.86984,-2.51773 1.48545,-3.69319 0.78719,-1.50309 4.53803,-4.54078 5.66339,-5.59104 4.67989,-4.70439 9.07364,-9.65837 13.15771,-14.88585 1.3285,-1.09239 1.45706,-2.88307 2.24581,-4.27218 0.32312,-0.56907 0.84569,-0.99891 1.26697,-1.49968 3.54276,-2.4753 7.09818,-5.21825 9.39901,-8.92784 -0.15258,-1.38341 0.68509,-3.35588 -0.45777,-4.15022 -4.24554,-2.95086 -6.91351,-0.88746 -10.12101,1.00701 -4.8739,2.8787 -9.21502,6.40244 -13.67525,9.87113 -6.45564,5.93618 -14.48746,11.53561 -17.88292,19.96837 -0.4932,2.72032 0.73998,5.05742 3.4773,5.80889 0.0909,0.025 -0.16452,-0.0955 -0.23294,-0.16036 -1.11375,-1.05574 -0.42295,-0.60206 -1.1722,-1.05114 -1.4842,3.26712 -2.88819,6.5698 -4.21081,9.90574 -1.07387,2.18347 -1.87517,4.50832 -2.39259,6.88516 -1.0766,1.57351 -1.13826,3.91191 -0.14624,5.5934 0.40244,0.68214 1.06917,1.16877 1.60376,1.75316 3.68275,2.1752 8.09628,2.88864 12.25574,3.64678 5.41677,0.68674 9.81905,2.01832 9.12035,-5.84466 -0.0832,-0.93592 -3.04036,-2.68403 -3.62159,-3.06998 -0.58312,-0.3402 -1.16577,-0.6812 -1.74936,-1.02061 -0.0212,-0.0123 -1.51143,-0.92727 -1.5154,-0.81993 -0.0555,1.50193 0.0434,3.00596 0.10479,4.50767 0.0333,0.81475 -0.0181,0.65795 0.31194,1.0939 3.66373,0.42016 7.34474,0.65697 11.0097,1.05986 0.50169,0.21504 3.5428,-6.88001 3.0411,-7.09505 v 0 c -3.87371,-0.95265 -7.84226,-1.22963 -11.82396,-1.41357 -0.44252,0.003 -6.58904,-0.47314 -7.51788,1.05867 -3.02571,4.98985 -0.19133,6.59525 3.3192,8.54341 0.93111,0.39816 1.84949,0.90233 2.02313,0.58838 0.7537,-1.3627 1.18667,-2.87961 1.77009,-4.32344 0.0288,-0.0712 -0.009,-0.20447 0.0661,-0.22073 0.2203,-0.0477 0.89563,0.0988 0.67349,0.0606 -0.7208,-0.12391 -1.44731,-0.21202 -2.17096,-0.31802 -3.41811,-0.58965 -6.88492,-1.24104 -10.27457,-1.78966 0.0683,0.4948 0.0688,1.96629 -0.0974,1.49527 -0.21975,-0.62275 1.18206,-1.57447 0.795,-2.12548 0.5015,-2.02623 1.4823,-3.89963 2.40804,-5.75396 1.66747,-3.76263 3.34741,-7.56342 4.41345,-11.54494 2.7e-4,-2.67222 0.44244,-3.07936 -1.45346,-5.33297 -1.27647,-1.51731 -1.77136,-0.83248 -1.76985,-0.82759 0.23003,0.74265 0.77992,1.37787 0.92259,2.14212 0.0885,0.47393 -0.17133,0.94889 -0.25699,1.42333 4.98717,-6.39164 11.50834,-11.36563 17.47656,-16.77157 4.0576,-3.39516 8.05062,-6.8058 12.36615,-9.87031 0.67285,-0.47779 2.34501,-0.63555 2.04018,-1.40243 -3.75964,-9.45846 -3.959,4.73688 -3.15627,-5.19774 -2.9201,3.18682 -6.61616,5.54753 -9.41208,8.85954 -0.33426,0.51906 -0.70063,1.01879 -1.00277,1.55718 -0.79045,1.40856 -0.93625,2.65997 -2.28244,3.66778 -4.51045,4.6846 -8.92429,9.46766 -13.25484,14.31774 -3.12627,3.48016 -6.4225,6.75951 -7.96723,11.29824 -1.42453,2.91578 -2.87497,5.75569 -3.69216,8.9165 -0.18865,0.72968 -0.64243,1.46855 -0.49148,2.20694 0.30911,1.51207 1.20901,2.84005 1.81352,4.26008 1.54222,-0.0546 3.11457,0.14432 4.62669,-0.16385 1.73423,-0.35343 3.73572,-4.48298 4.43657,-5.91142 0.86846,-2.80848 2.14496,-5.42363 3.55926,-8.00182 0.45452,-0.966 0.61643,-1.43251 1.18555,-2.26351 1.04659,-1.5282 2.73647,-2.55458 3.25472,-4.46202 0.94479,-3.13149 1.40422,-6.37389 2.43932,-9.47956 1.2966,-2.65412 2.83274,-5.24959 4.54583,-7.64988 2.07382,-2.10782 4.36223,-3.86199 6.95753,-5.30314 0.6578,-0.36409 6.09285,-3.30342 6.08727,-3.31618 -2.65302,-6.06515 -3.23521,-6.06932 -5.00214,-4.13913 -2.89911,2.97236 -5.12164,6.3918 -7.37929,9.86191 -1.57792,2.73884 -3.4215,5.25509 -5.30096,7.79041 -1.17738,1.60899 -2.41099,3.26813 -3.97071,4.51746 -3.595,3.26601 -6.70887,7.07997 -8.90685,11.43031 -0.95518,2.05861 -1.84524,4.12123 -2.35827,6.32857 -2.11346,1.60517 -4.34766,3.06099 -6.45895,4.67747 -3.37949,2.99261 -4.83503,5.83869 -4.22478,10.43414 0.42243,1.80341 1.00803,4.58347 2.97438,5.46301 3.13772,1.40347 5.29374,0.96383 7.45333,-1.40206 1.44178,-2.24439 2.29884,-4.71774 3.39044,-7.13503 1.87438,-3.53361 4.47199,-6.60577 6.29163,-10.17965 1.61553,-3.15406 3.3099,-6.28933 4.37925,-9.68115 0.57567,-1.56842 1.33407,-2.84714 2.17772,-4.30096 1.58455,-2.73056 3.00768,-5.56715 5.11586,-7.9549 2.71615,-3.34562 5.361,-6.6974 7.878,-10.19517 0.57085,-0.79328 2.13532,-1.48859 1.721,-2.37374 -2.90735,-6.21123 -3.073,-6.06636 -5.38746,-4.99226 -1.87374,2.1718 -3.52134,4.49734 -5.09565,6.88658 -1.12854,1.41962 -2.2815,2.8053 -2.79446,4.57827 -0.0121,0.042 0.0378,-0.0789 0.0566,-0.11838 -1.29785,2.22387 -2.86478,4.24592 -4.3097,6.375 -2.00524,3.08496 -4.19923,6.00143 -6.55058,8.83345 -1.85381,2.27976 -3.55321,4.67396 -5.32649,7.01502 -3.19416,4.53231 -5.16162,9.73988 -6.4181,15.1285 -0.14302,0.51625 7.15789,2.53897 7.30091,2.02271 z" />
</svg>
